<?xml version="1.0" standalone="no"?>
<!DOCTYPE svg PUBLIC "-//W3C//DTD SVG 20010904//EN"
 "http://www.w3.org/TR/2001/REC-SVG-20010904/DTD/svg10.dtd">
<svg version="1.0" xmlns="http://www.w3.org/2000/svg"
 width="2000.000000pt" height="2000.000000pt" viewBox="0 0 2000.000000 2000.000000"
 preserveAspectRatio="xMidYMid meet">

<g transform="translate(0.000000,2000.000000) scale(0.100000,-0.100000)"
fill="#000000" stroke="none">
<path d="M2022 15480 c178 -203 506 -389 845 -480 236 -64 551 -113 808 -125
322 -16 716 -60 865 -96 108 -27 270 -91 325 -129 170 -117 389 -383 535 -650
181 -330 263 -458 395 -615 242 -289 429 -390 597 -324 62 24 89 51 292 281
186 212 347 353 455 399 136 58 287 48 402 -27 98 -62 197 -186 290 -362 36
-69 45 -79 51 -62 4 11 12 20 17 20 5 0 40 21 78 47 65 44 71 46 138 46 47 -1
94 -9 145 -26 41 -14 77 -24 78 -22 2 2 -14 13 -36 24 -23 11 -44 26 -48 32
-3 6 -28 21 -55 34 l-48 22 98 72 c93 67 183 150 214 196 48 69 43 72 -16 8
-71 -76 -166 -154 -230 -191 -37 -21 -37 -21 -27 -1 16 28 40 163 39 212 l-1
42 -10 -40 c-24 -97 -53 -174 -87 -228 -30 -48 -55 -72 -145 -133 -59 -41
-112 -74 -115 -74 -4 0 -23 32 -42 72 -19 40 -58 105 -87 146 -28 40 -52 75
-52 78 0 17 126 172 194 239 115 112 214 186 347 255 63 33 111 60 107 60 -5
0 -52 -19 -106 -43 -106 -47 -216 -116 -326 -206 -70 -56 -214 -210 -236 -251
l-12 -22 -36 34 c-65 61 -128 99 -211 127 l-81 27 102 49 c57 27 168 80 248
118 162 78 147 71 435 172 209 73 456 165 570 212 85 36 328 182 407 246 37
29 87 78 110 108 l43 54 -75 -69 c-213 -195 -475 -321 -1100 -529 -245 -82
-470 -173 -725 -297 -251 -121 -496 -314 -682 -537 -88 -105 -180 -200 -235
-243 -35 -27 -102 -50 -144 -50 -110 0 -308 141 -456 326 -105 132 -179 249
-303 479 -154 288 -228 408 -360 586 -186 251 -375 372 -650 414 -61 10 -267
21 -525 30 -491 16 -660 28 -820 56 -448 78 -854 259 -1109 494 -45 41 -84 75
-87 75 -3 0 19 -27 48 -60z"/>
<path d="M3940 14549 c226 -41 285 -54 370 -81 89 -28 237 -97 263 -122 7 -6
59 -45 117 -85 183 -129 387 -311 580 -516 155 -165 160 -170 100 -90 -90 121
-229 273 -355 388 -124 115 -344 286 -450 350 -151 92 -360 152 -565 161 -96
4 -106 3 -60 -5z"/>
<path d="M7744 13250 c-121 -25 -229 -127 -260 -242 -49 -189 -69 -519 -48
-808 25 -350 14 -593 -32 -735 -20 -59 -103 -226 -136 -273 -44 -63 -192 -183
-312 -254 -152 -90 -286 -153 -446 -210 -142 -51 -122 -45 -490 -133 -151 -36
-309 -74 -350 -84 -319 -81 -543 -181 -830 -370 -64 -42 -273 -242 -330 -316
-87 -113 -191 -313 -202 -390 -3 -16 -3 -24 -1 -17 3 6 8 12 13 12 5 0 6 7 3
17 -4 11 -3 14 5 9 7 -4 12 -2 12 3 0 22 90 199 140 276 94 143 289 327 477
449 91 59 308 155 443 196 58 17 159 49 225 70 123 39 283 75 291 67 3 -3 -2
-39 -10 -81 -9 -41 -16 -102 -16 -135 0 -81 36 -261 65 -327 26 -60 83 -144
97 -144 5 0 -5 17 -21 38 -17 20 -43 69 -58 107 -26 66 -28 78 -28 230 0 188
15 251 74 315 34 36 45 41 211 84 96 25 201 54 233 65 31 11 57 18 57 15 0 -3
-11 -20 -25 -38 -39 -51 -73 -145 -87 -240 -11 -76 -10 -97 6 -174 26 -128 56
-184 150 -277 132 -130 283 -204 584 -285 154 -41 252 -74 327 -110 352 -167
376 -182 559 -340 224 -194 316 -408 316 -737 0 -67 -5 -155 -10 -195 -6 -40
-17 -127 -25 -194 -19 -159 -49 -273 -125 -479 -35 -93 -64 -171 -66 -173 -1
-2 -38 3 -81 12 -173 35 -702 103 -993 127 -183 16 -678 16 -875 1 -88 -7
-224 -16 -302 -22 -137 -9 -532 -70 -583 -90 l-25 -10 25 5 c14 3 122 17 240
31 176 21 278 26 565 31 342 5 766 -7 945 -27 47 -6 150 -17 230 -25 209 -23
500 -61 635 -85 65 -11 128 -20 141 -20 12 0 26 -4 29 -10 10 -16 -117 -198
-198 -286 -247 -265 -600 -486 -992 -623 -334 -116 -516 -162 -695 -176 -47
-4 -154 -13 -239 -21 -194 -18 -400 -18 -706 1 -513 30 -706 58 -995 142 -136
40 -416 188 -563 299 -120 90 -341 308 -416 410 -44 59 -135 221 -164 289 -46
112 -127 352 -141 421 -48 232 -56 614 -17 854 28 181 98 454 150 591 91 241
246 566 349 734 30 49 64 106 75 125 l19 35 -28 -34 c-44 -51 -238 -354 -294
-456 -58 -109 -189 -410 -225 -520 -97 -296 -159 -725 -136 -942 6 -54 18
-163 27 -243 18 -169 73 -429 115 -544 30 -83 106 -224 195 -363 101 -155 315
-367 489 -483 44 -29 102 -68 130 -87 27 -18 53 -33 58 -33 5 0 29 -14 53 -31
62 -42 140 -73 329 -129 275 -81 416 -103 880 -136 328 -23 378 -24 560 -14
264 14 535 37 665 56 130 18 476 95 610 135 160 47 433 171 554 251 256 170
467 371 662 634 l83 111 143 -28 c79 -15 224 -48 323 -72 99 -25 263 -64 365
-87 266 -61 817 -219 1260 -362 102 -32 275 -84 385 -114 110 -31 268 -75 350
-99 240 -69 517 -142 690 -180 88 -20 205 -48 260 -61 121 -31 768 -154 955
-183 430 -65 687 -82 1047 -69 313 11 679 56 938 114 136 31 353 103 460 153
116 55 438 230 447 244 4 7 8 8 8 3 0 -6 6 -3 13 6 6 8 75 57 152 108 138 91
250 178 329 254 23 22 32 32 21 24 -97 -76 -482 -306 -663 -397 -83 -42 -443
-182 -552 -215 -120 -36 -354 -91 -490 -115 -179 -31 -286 -39 -710 -52 -376
-11 -406 -10 -620 10 -526 50 -1028 140 -1615 292 -750 193 -970 251 -1055
277 -52 16 -151 48 -220 69 -69 22 -204 59 -300 82 -96 24 -276 72 -400 107
-272 78 -1050 276 -1175 299 -82 15 -286 64 -293 70 -2 1 13 31 32 66 42 79
120 293 146 403 32 135 60 369 60 496 0 94 -6 148 -30 259 -81 382 -256 650
-550 843 -167 110 -227 135 -603 253 -439 137 -654 257 -723 403 -9 20 -25 68
-35 107 -17 65 -17 77 -4 161 18 114 25 133 79 209 129 180 349 334 649 454
116 46 185 62 377 86 167 20 290 10 448 -36 180 -52 243 -94 295 -193 29 -56
31 -69 32 -161 0 -93 -2 -105 -33 -167 -41 -83 -118 -156 -215 -202 -60 -29
-218 -79 -317 -100 -14 -2 16 -3 65 -1 93 3 215 34 291 73 21 11 74 50 116 86
67 57 83 78 117 149 50 103 70 212 52 291 -32 143 -145 238 -380 316 -208 70
-559 55 -825 -36 -39 -13 -72 -24 -74 -24 -2 0 12 18 31 41 78 91 134 234 157
404 7 51 10 279 10 620 -2 695 5 760 98 903 19 29 49 61 66 71 41 26 142 51
202 51 33 0 45 3 38 10 -15 15 -101 21 -150 10z"/>
<path d="M5320 11943 c-14 -2 -135 -26 -270 -53 -135 -27 -317 -63 -405 -81
-122 -24 -197 -33 -315 -37 l-155 -5 70 -14 c56 -11 98 -11 214 -3 80 6 149
14 154 17 5 3 39 9 76 14 36 4 142 24 236 43 93 20 247 46 343 57 163 21 177
21 253 6 101 -20 166 -56 186 -105 25 -61 13 -173 -27 -252 -82 -161 -150
-238 -416 -470 -156 -136 -518 -499 -621 -623 -225 -272 -398 -604 -497 -952
-36 -127 -100 -515 -85 -515 4 0 10 24 14 53 10 79 99 439 140 568 66 206 262
580 403 772 101 136 430 468 692 696 295 258 343 312 436 490 7 13 20 55 30
93 14 59 15 79 5 123 -23 103 -97 161 -223 175 -82 10 -189 11 -238 3z"/>
<path d="M10278 11370 c-110 -38 -183 -94 -254 -194 -73 -102 -213 -378 -269
-531 -21 -55 -42 -103 -47 -106 -6 -4 -8 -11 -4 -17 3 -6 2 -12 -2 -14 -5 -1
-28 -61 -52 -133 -23 -71 -75 -215 -115 -320 -40 -104 -80 -215 -90 -245 -34
-105 -236 -656 -281 -765 -25 -60 -72 -184 -104 -275 -32 -91 -85 -237 -118
-325 -118 -315 -200 -581 -184 -597 13 -13 93 176 138 322 14 48 116 222 189
325 75 105 334 386 459 498 139 124 237 180 314 181 67 1 74 -17 68 -169 -4
-114 -7 -128 -60 -277 -30 -86 -71 -195 -90 -241 -63 -152 -108 -315 -109
-392 0 -132 61 -223 145 -212 102 14 209 91 441 321 98 97 126 120 120 99 -4
-16 -7 -59 -7 -98 0 -109 57 -206 152 -258 134 -73 336 -22 472 117 48 50 60
56 60 28 0 -39 78 -130 135 -159 11 -6 43 -13 70 -17 107 -13 245 47 397 173
93 78 128 114 268 273 41 47 76 85 78 83 2 -1 -2 -24 -9 -50 -17 -66 -6 -206
22 -280 15 -42 38 -75 75 -113 64 -63 122 -91 189 -92 140 0 390 141 515 291
l47 57 6 -50 c13 -107 88 -212 187 -261 69 -34 220 -37 301 -6 82 30 162 83
247 164 82 77 181 237 231 373 38 102 81 331 81 429 l0 73 28 0 c41 0 207 84
349 177 125 83 192 109 245 97 35 -7 53 -43 63 -120 12 -95 -82 -394 -238
-754 -44 -102 -90 -212 -103 -245 -12 -33 -38 -100 -58 -150 -19 -49 -35 -98
-36 -107 0 -36 44 -32 56 5 4 12 80 171 169 352 165 334 180 358 380 630 29
39 94 109 146 156 182 165 245 203 329 197 38 -3 47 -8 64 -38 30 -51 29 -213
-2 -327 -12 -45 -19 -90 -15 -99 4 -11 2 -15 -4 -11 -7 4 -15 -18 -23 -61 -27
-148 -156 -566 -205 -662 -12 -25 -26 -60 -30 -78 -6 -30 -5 -33 12 -30 30 5
117 148 255 419 115 223 199 377 231 424 57 81 223 277 283 336 80 76 136 111
218 134 56 16 59 16 84 -2 42 -31 57 -93 44 -182 -10 -67 -28 -110 -161 -376
-83 -165 -160 -330 -171 -368 -56 -193 -49 -282 31 -359 38 -37 64 -52 121
-70 65 -20 92 -23 248 -22 158 0 190 3 330 33 218 46 291 73 463 169 306 170
476 338 654 648 133 232 196 488 223 907 21 313 -17 578 -116 806 -54 124 -90
177 -178 259 -93 87 -182 147 -307 209 -145 70 -225 96 -394 128 -249 47 -775
46 -1041 -2 -52 -9 -94 -20 -94 -24 0 -5 -6 -6 -14 -3 -27 11 -246 -56 -511
-156 -60 -23 -132 -48 -160 -57 -100 -30 -734 -352 -985 -498 -107 -63 -408
-252 -490 -308 -25 -17 -119 -81 -210 -142 -198 -132 -259 -177 -260 -188 0
-5 15 1 33 12 17 12 86 54 152 93 66 39 251 152 411 250 518 316 928 526 1376
704 493 195 733 251 1133 264 599 20 906 -47 1141 -248 172 -146 249 -243 303
-378 22 -58 66 -247 81 -353 15 -109 13 -427 -5 -576 -29 -247 -120 -543 -215
-706 -76 -128 -301 -376 -405 -446 -65 -44 -247 -137 -335 -171 -141 -56 -405
-96 -589 -90 -96 3 -114 6 -167 33 -77 40 -105 88 -112 190 -9 147 32 286 157
535 49 96 99 203 111 237 43 119 16 269 -60 338 -44 40 -168 26 -260 -28 -62
-37 -234 -173 -281 -223 -48 -52 -140 -174 -178 -237 -13 -21 -25 -37 -26 -35
-2 2 3 28 11 58 16 64 19 296 4 351 -24 85 -85 136 -175 147 -97 10 -199 -50
-365 -217 -69 -69 -152 -165 -185 -213 -33 -48 -61 -86 -62 -84 -1 1 8 33 22
72 39 113 67 270 62 345 -8 124 -55 164 -186 157 -118 -6 -167 -34 -319 -180
-101 -98 -143 -131 -205 -163 -85 -42 -97 -40 -97 16 0 43 -37 150 -68 200
-73 114 -220 103 -421 -32 -188 -125 -346 -338 -528 -709 -90 -184 -174 -308
-274 -408 -121 -120 -256 -180 -338 -150 -75 28 -142 234 -121 374 6 39 35
150 65 247 l53 177 90 113 c49 61 127 164 174 227 47 63 132 172 189 241 104
126 373 488 484 649 32 47 84 119 115 160 254 336 392 607 406 797 7 93 -5
145 -44 193 -54 65 -177 78 -278 30 -75 -36 -218 -185 -300 -312 -255 -395
-302 -485 -450 -863 -20 -49 -60 -146 -90 -213 -30 -68 -81 -194 -113 -280
-33 -87 -95 -250 -140 -365 -45 -114 -91 -242 -103 -285 -15 -52 -34 -92 -58
-122 -152 -188 -299 -372 -372 -466 -124 -158 -274 -281 -370 -304 -57 -13
-121 -13 -151 1 -56 25 -83 171 -54 286 13 48 32 83 85 154 101 133 325 558
344 650 10 50 9 60 -5 83 -22 33 -60 34 -107 2 -26 -17 -51 -54 -94 -137 -33
-63 -70 -131 -83 -152 -56 -89 -233 -447 -252 -510 -23 -76 -36 -96 -134 -214
-75 -90 -149 -147 -221 -168 -42 -13 -51 -13 -76 0 -67 35 -120 145 -120 251
0 152 90 380 210 534 103 132 269 327 321 377 55 52 132 93 175 93 35 0 74
-37 74 -71 0 -10 5 -21 10 -24 19 -12 10 78 -11 123 -38 78 -129 100 -232 57
-45 -19 -146 -129 -264 -290 -101 -137 -249 -330 -310 -404 -34 -42 -108 -134
-164 -206 -57 -71 -152 -180 -213 -240 -90 -89 -127 -119 -194 -153 -137 -71
-167 -51 -158 104 6 109 44 226 164 509 110 262 114 274 120 399 13 300 -91
360 -377 220 -82 -41 -109 -61 -219 -168 -69 -66 -167 -174 -219 -238 -52 -65
-98 -120 -104 -123 -11 -7 -10 -6 69 185 57 139 151 407 187 537 l17 62 196
148 c197 149 248 194 357 313 163 178 258 301 397 516 174 266 216 354 244
502 51 273 -1 372 -211 396 -36 4 -66 0 -107 -14z m115 -180 c47 -37 59 -90
48 -216 -8 -91 -17 -128 -51 -215 -49 -126 -79 -181 -191 -346 -111 -165 -188
-262 -338 -426 -127 -139 -195 -203 -305 -286 -111 -84 -109 -88 -49 82 30 84
80 222 112 307 32 85 64 173 71 195 19 62 159 403 192 469 53 104 125 206 228
323 68 77 89 92 155 115 66 23 97 22 128 -2z m3151 -113 c19 -25 21 -41 20
-145 -1 -107 -4 -127 -38 -227 -24 -73 -60 -149 -105 -225 -38 -63 -95 -160
-126 -215 -85 -148 -283 -419 -570 -780 -83 -104 -202 -255 -265 -335 -160
-203 -157 -201 -120 -100 18 47 47 128 65 180 60 174 202 543 264 687 174 404
256 564 405 796 90 138 125 183 198 252 159 150 224 176 272 112z m183 -1819
c24 -26 48 -106 58 -190 6 -57 6 -58 -20 -58 -16 0 -41 14 -68 39 l-42 40 0
73 c1 74 15 118 39 118 7 0 22 -10 33 -22z m-160 -28 c-9 -41 10 -137 36 -182
24 -44 85 -78 153 -86 l44 -5 0 -66 c0 -107 -28 -304 -56 -393 -58 -185 -112
-277 -229 -386 -214 -200 -405 -189 -513 30 -45 91 -59 185 -45 297 14 106 52
201 145 359 53 89 85 129 198 243 74 75 164 154 200 177 36 23 67 42 69 42 2
0 1 -13 -2 -30z"/>
</g>
</svg>
